HIERARCHY
ROOT Hips
{
  OFFSET 52.134 86.6595 27.1869
  CHANNELS 6 Xposition Yposition Zposition Zrotation Xrotation Yrotation
  JOINT spine
  {
    OFFSET 0 6.84637 0.3937
    CHANNELS 3 Zrotation Xrotation Yrotation
    JOINT spine1
    {
      OFFSET 0 9.49621 0
      CHANNELS 3 Zrotation Xrotation Yrotation
      JOINT spine2
      {
        OFFSET 0 9.09909 0
        CHANNELS 3 Zrotation Xrotation Yrotation
        JOINT Neck
        {
          OFFSET 0 23.3612 1.11378
          CHANNELS 3 Zrotation Xrotation Yrotation
          JOINT Head
          {
            OFFSET 0 7.05802 0
            CHANNELS 3 Zrotation Xrotation Yrotation
            End Site
            {
              OFFSET 0 17.0844 -5.63419
            }
          }
        }
        JOINT RightShoulder
        {
          OFFSET -3.83136 9.82631 -0.533491
          CHANNELS 3 Zrotation Xrotation Yrotation
          JOINT RightArm
          {
            OFFSET 0 12.8881 0
            CHANNELS 3 Zrotation Xrotation Yrotation
            JOINT RightArmRoll
            {
              OFFSET 0 6.50617 0
              CHANNELS 3 Zrotation Xrotation Yrotation
              JOINT RightForeArm
              {
                OFFSET 0 18.9501 0
                CHANNELS 3 Zrotation Xrotation Yrotation
                JOINT RightForeArmRoll
                {
                  OFFSET 0 7.30092 0
                  CHANNELS 3 Zrotation Xrotation Yrotation
                  JOINT RightHand
                  {
                    OFFSET 0 14.6514 0
                    CHANNELS 3 Zrotation Xrotation Yrotation
                    End Site
                    {
                      OFFSET 0 0 0
                    }
                  }
                }
              }
            }
          }
        }
        JOINT LeftShoulder
        {
          OFFSET 3.83136 9.82631 -0.533491
          CHANNELS 3 Zrotation Xrotation Yrotation
          JOINT LeftArm
          {
            OFFSET 0 12.8881 0
            CHANNELS 3 Zrotation Xrotation Yrotation
            JOINT LeftArmRoll
            {
              OFFSET 0 6.50617 0
              CHANNELS 3 Zrotation Xrotation Yrotation
              JOINT LeftForeArm
              {
                OFFSET 0 18.9501 0
                CHANNELS 3 Zrotation Xrotation Yrotation
                JOINT LeftForeArmRoll
                {
                  OFFSET 0 7.30092 0
                  CHANNELS 3 Zrotation Xrotation Yrotation
                  JOINT LeftHand
                  {
                    OFFSET 0 14.6514 0
                    CHANNELS 3 Zrotation Xrotation Yrotation
                    End Site
                    {
                      OFFSET 0 0 0
                    }
                  }
                }
              }
            }
          }
        }
      }
    }
  }
  JOINT RightUpLeg
  {
    OFFSET -6.06837 -1.11278 -0.933477
    CHANNELS 3 Zrotation Xrotation Yrotation
    JOINT RightUpLegRoll
    {
      OFFSET 0 17.1796 0
      CHANNELS 3 Zrotation Xrotation Yrotation
      JOINT RightLeg
      {
        OFFSET 0 -21.2743 0
        CHANNELS 3 Zrotation Xrotation Yrotation
        JOINT RightLegRoll
        {
          OFFSET 0 21.3439 0
          CHANNELS 3 Zrotation Xrotation Yrotation
          JOINT RightFoot
          {
            OFFSET 0 17.7652 0
            CHANNELS 3 Zrotation Xrotation Yrotation
            JOINT RightToeBase
            {
              OFFSET 0 14.8508 0
              CHANNELS 3 Zrotation Xrotation Yrotation
              End Site
              {
                OFFSET 0.0062947 7.19214 -0.829005
              }
            }
          }
        }
      }
    }
  }
  JOINT LeftUpLeg
  {
    OFFSET 6.06837 -1.11278 -0.933477
    CHANNELS 3 Zrotation Xrotation Yrotation
    JOINT LeftUpLegRoll
    {
      OFFSET 0 17.1797 0
      CHANNELS 3 Zrotation Xrotation Yrotation
      JOINT LeftLeg
      {
        OFFSET 0 21.2742 0
        CHANNELS 3 Zrotation Xrotation Yrotation
        JOINT LeftLegRoll
        {
          OFFSET 0 21.5412 0
          CHANNELS 3 Zrotation Xrotation Yrotation
          JOINT LeftFoot
          {
            OFFSET 0 17.5679 0
            CHANNELS 3 Zrotation Xrotation Yrotation
            JOINT LeftToeBase
            {
              OFFSET 0 14.8508 0
              CHANNELS 3 Zrotation Xrotation Yrotation
              End Site
              {
                OFFSET -0.0282102 7.19214 -0.829005
              }
            }
          }
        }
      }
    }
  }
}
MOTION
Frames: 12
Frame Time: 0.00208333
52.1102 71.8608 8.80139 7.93808 40.6092 -11.8382 -0.4751 0.765112 0.460373 -0.964596 5.52877 0.98406 -0.978376 7.17362 1.00174 -22.1171 -10.7818 -0.661842 16.7319 19.8725 -4.32438 37.2193 -5.16505 -1.62155 135.437 32.9707 -68.2629 -9.17776e-006 -3.32771e-006 -6.09793e-006 21.3524 51.5761 -4.50541 -9.47833e-006 3.09696e-006 -3.00001 8.03013 -4.95162 0.697669 -61.8667 -9.31363 5.81184 -127.172 53.4585 43.7581 -1.93372e-006 2.06424e-007 2.61463e-006 -41.8627 6.60026 -1.61272 -9.25065e-007 2.84242e-006 2.99298 -8.03083 -4.95143 -0.697732 46.0426 84.4537 132.827 180 1.52581e-005 179.441 162.865 58.3368 -170.286 2.7922e-006 -1.83524e-007 0.874487 -25.8424 69.6823 21.341 8.13649 25.2327 -3.48774 -85.2579 79.7937 -95.5821 4.54188e-006 -4.6773e-006 -0.394496 -28.3831 -62.8927 -18.1457 4.34571e-006 -5.44513e-006 0.783269 41.1193 76.7345 -35.1549 -8.13649 25.2326 3.48774 
52.1119 71.9565 8.85979 7.91627 40.543 -11.8043 -0.469506 0.75972 0.458829 -0.95327 5.51805 0.979864 -0.966974 7.16291 0.997347 -22.1069 -10.8361 -0.668502 16.7183 19.8607 -4.31571 37.3123 -5.13465 -1.60105 135.513 33.0871 -68.0833 -9.17776e-006 -3.32771e-006 -6.09793e-006 21.6 51.1764 -4.55087 -9.47833e-006 3.09696e-006 -3.00001 8.03013 -4.95162 0.697669 -61.9843 -9.31271 5.81272 -127.315 53.5866 43.3737 -1.93372e-006 2.06424e-007 2.61463e-006 -41.7555 6.04951 -1.76085 -9.25065e-007 2.84242e-006 2.99457 -8.03083 -4.95143 -0.697732 48.0772 84.5974 130.777 180 1.52581e-005 179.443 162.909 58.1383 -170.348 2.7922e-006 -1.83524e-007 0.869132 -25.8184 69.656 21.311 8.13649 25.2327 -3.48774 -86.5765 79.8535 -94.2145 4.54188e-006 -4.6773e-006 -0.392742 -28.2641 -62.6819 -18.0261 4.34571e-006 -5.44512e-006 0.79169 41.0162 76.701 -35.0506 -8.13649 25.2326 3.48774 
52.115 72.0587 8.91453 7.89379 40.4751 -11.7704 -0.463941 0.754521 0.457339 -0.942009 5.50773 0.975872 -0.955639 7.15259 0.993157 -22.0955 -10.8908 -0.674971 16.7034 19.8486 -4.30653 37.4045 -5.10537 -1.58158 135.594 33.2048 -67.9026 -9.17776e-006 -3.32771e-006 -6.09793e-006 21.8452 50.7699 -4.5918 -9.47833e-006 3.09696e-006 -3.00001 8.03013 -4.95162 0.697669 -62.1 -9.31065 5.8129 -127.454 53.712 42.9846 -1.93372e-006 2.06424e-007 2.61463e-006 -41.6458 5.53068 -1.88059 -9.25065e-007 2.84242e-006 2.99689 -8.03083 -4.95143 -0.697732 50.2387 84.7357 128.601 180 1.52581e-005 179.445 162.954 57.9388 -170.411 2.7922e-006 -1.83524e-007 0.863985 -25.7945 69.6292 21.2807 8.13649 25.2327 -3.48774 -87.9229 79.9069 -92.8197 4.54188e-006 -4.6773e-006 -0.390949 -28.1455 -62.4704 -17.9068 4.34571e-006 -5.44512e-006 0.799855 40.9118 76.6672 -34.9449 -8.13649 25.2326 3.48774 
52.1096 72.1539 8.97124 7.8706 40.4054 -11.7364 -0.45841 0.74954 0.455916 -0.93082 5.49783 0.972129 -0.94438 7.1427 0.989218 -22.0829 -10.946 -0.68127 16.6873 19.8363 -4.29681 37.4955 -5.07724 -1.56315 135.678 33.3235 -67.7208 -9.17776e-006 -3.32771e-006 -6.09793e-006 22.0877 50.3567 -4.62805 -9.47833e-006 3.09696e-006 -3.00001 8.03013 -4.95162 0.697669 -62.2134 -9.30728 5.81228 -127.59 53.8342 42.5903 -1.93372e-006 2.06424e-007 2.61463e-006 -41.5329 5.04708 -1.96878 -9.25065e-007 2.84242e-006 3.00001 -8.03083 -4.95143 -0.697732 52.5341 84.8679 126.293 180 1.52581e-005 179.446 162.999 57.7385 -170.474 2.7922e-006 -1.83524e-007 0.859067 -25.7706 69.6021 21.2501 8.13649 25.2327 -3.48774 -89.2965 79.9536 -91.3985 4.54188e-006 -4.6773e-006 -0.389111 -28.0273 -62.258 -17.7876 4.34571e-006 -5.44512e-006 0.807743 40.8061 76.633 -34.8377 -8.13649 25.2326 3.48774 
52.1049 72.2515 9.02435 7.84672 40.3332 -11.7025 -0.452935 0.744898 0.454573 -0.919751 5.48862 0.968649 -0.933244 7.13349 0.985544 -22.0686 -11.0016 -0.687304 16.6689 19.8232 -4.28631 37.5859 -5.05052 -1.54607 135.767 33.4443 -67.5385 -9.17776e-006 -3.32771e-006 -6.09793e-006 22.3302 49.9356 -4.66124 -9.47833e-006 3.09696e-006 -3.00001 8.03013 -4.95162 0.697669 -62.3252 -9.30254 5.81085 -127.723 53.9545 42.1891 -1.93372e-006 2.06424e-007 2.61463e-006 -41.4129 4.59365 -2.02709 -9.25065e-007 2.84242e-006 3.00392 -8.03083 -4.95143 -0.697732 54.979 84.9934 123.836 180 1.52581e-005 179.448 163.044 57.537 -170.538 2.7922e-006 -1.83524e-007 0.854422 -25.7472 69.5745 21.219 8.13649 25.2327 -3.48774 -90.7002 79.9932 -89.9481 4.54188e-006 -4.6773e-006 -0.387237 -27.9097 -62.0443 -17.6687 4.34571e-006 -5.44512e-006 0.815415 40.6987 76.5982 -34.7284 -8.13649 25.2326 3.48774 
52.1049 72.3471 9.08147 7.82221 40.2584 -11.6685 -0.447526 0.740655 0.453298 -0.908823 5.48019 0.965386 -0.922253 7.12507 0.98209 -22.0522 -11.0573 -0.692986 16.6477 19.8093 -4.27482 37.6769 -5.02531 -1.53051 135.86 33.5682 -67.3564 -9.17776e-006 -3.32771e-006 -6.09793e-006 22.5752 49.5057 -4.69282 -9.47833e-006 3.09696e-006 -3.00001 8.03013 -4.95162 0.697669 -62.4362 -9.29663 5.80871 -127.854 54.0742 41.7801 -1.93372e-006 2.06424e-007 2.61463e-006 -41.2822 4.16284 -2.0605 -9.25065e-007 2.84242e-006 3.00854 -8.03083 -4.95143 -0.697732 57.5851 85.111 121.221 180 1.52581e-005 179.45 163.089 57.3339 -170.602 2.7922e-006 -1.83524e-007 0.850062 -25.7246 69.5464 21.1875 8.13649 25.2327 -3.48774 -92.135 80.0254 -88.4676 4.54188e-006 -4.6773e-006 -0.38534 -27.7932 -61.8286 -17.5501 4.34571e-006 -5.44512e-006 0.822937 40.5893 76.5625 -34.6163 -8.13649 25.2326 3.48774 
52.1042 72.445 9.13949 7.79713 40.1812 -11.6343 -0.442174 0.736741 0.452075 -0.898011 5.47243 0.962302 -0.911381 7.11731 0.978817 -22.0341 -11.1133 -0.698337 16.624 19.7947 -4.26248 37.7685 -5.00148 -1.51636 135.956 33.695 -67.1742 -9.17776e-006 -3.32771e-006 -6.09793e-006 22.8219 49.0675 -4.72243 -9.47833e-006 3.09696e-006 -3.00001 8.03013 -4.95162 0.697669 -62.5466 -9.28969 5.80598 -127.984 54.1929 41.364 -1.93372e-006 2.06424e-007 2.61463e-006 -41.1414 3.75422 -2.07079 -9.25065e-007 2.84242e-006 3.0138 -8.03083 -4.95143 -0.697732 60.351 85.2194 118.447 180 1.52581e-005 179.452 163.134 57.1295 -170.667 2.7922e-006 -1.83524e-007 0.845953 -25.7026 69.5178 21.1556 8.13649 25.2327 -3.48774 -93.5961 80.0501 -86.9616 4.54188e-006 -4.6773e-006 -0.383423 -27.6778 -61.6112 -17.432 4.34571e-006 -5.44512e-006 0.8303 40.4781 76.526 -34.5017 -8.13649 25.2326 3.48774 
52.0998 72.5404 9.19452 7.77152 40.102 -11.5999 -0.436864 0.733089 0.450889 -0.887292 5.46519 0.959358 -0.900602 7.11007 0.975686 -22.0143 -11.1694 -0.703381 16.5984 19.7795 -4.24937 37.8607 -4.9789 -1.50348 136.056 33.8243 -66.9917 -9.17776e-006 -3.32771e-006 -6.09793e-006 23.0696 48.6212 -4.74976 -9.47833e-006 3.09696e-006 -3.00001 8.03013 -4.95162 0.697669 -62.6562 -9.28188 5.80273 -128.112 54.3104 40.942 -1.93372e-006 2.06424e-007 2.61463e-006 -40.991 3.36735 -2.05972 -9.25065e-007 2.84242e-006 3.01963 -8.03083 -4.95143 -0.697732 63.2718 85.3174 115.519 180 1.52581e-005 179.453 163.179 56.9238 -170.732 2.7922e-006 -1.83524e-007 0.842063 -25.6811 69.4887 21.1232 8.13649 25.2327 -3.48774 -95.079 80.0673 -85.4344 4.54188e-006 -4.6773e-006 -0.381487 -27.5632 -61.3924 -17.3143 4.34571e-006 -5.44512e-006 0.837494 40.3654 76.4888 -34.385 -8.13649 25.2326 3.48774 
52.1008 72.6374 9.25074 7.74541 40.021 -11.5653 -0.431586 0.729631 0.449724 -0.876639 5.45833 0.956516 -0.889892 7.10322 0.972659 -21.9932 -11.2257 -0.708141 16.5712 19.764 -4.23563 37.9535 -4.95741 -1.49173 136.159 33.956 -66.8089 -9.17776e-006 -3.32771e-006 -6.09793e-006 23.3178 48.1673 -4.77448 -9.47833e-006 3.09696e-006 -3.00001 8.03013 -4.95162 0.697669 -62.7652 -9.27335 5.79906 -128.237 54.4263 40.515 -1.93372e-006 2.06424e-007 2.61463e-006 -40.8314 3.00181 -2.02904 -9.25065e-007 2.84242e-006 3.02599 -8.03083 -4.95143 -0.697732 66.3385 85.4035 112.447 180 1.52581e-005 179.455 163.223 56.7171 -170.797 2.7922e-006 -1.83524e-007 0.838358 -25.6599 69.4592 21.0904 8.13649 25.2327 -3.48774 -96.5792 80.0769 -83.8907 4.54188e-006 -4.6773e-006 -0.379535 -27.4495 -61.1722 -17.1972 4.34571e-006 -5.44512e-006 0.84451 40.2513 76.4509 -34.2665 -8.13649 25.2326 3.48774 
52.0982 72.7332 9.30784 7.71886 39.9385 -11.5305 -0.426328 0.7263 0.448563 -0.866027 5.45173 0.953738 -0.879224 7.09662 0.969696 -21.9709 -11.2822 -0.712641 16.543 19.7482 -4.22135 38.047 -4.93689 -1.481 136.265 34.0899 -66.6254 -9.17776e-006 -3.32771e-006 -6.09793e-006 23.5657 47.706 -4.79629 -9.47833e-006 3.09696e-006 -3.00001 8.03013 -4.95162 0.697669 -62.8735 -9.26426 5.79505 -128.359 54.5404 40.084 -1.93372e-006 2.06424e-007 2.61463e-006 -40.6635 2.65718 -1.98048 -9.25065e-007 2.84242e-006 3.03281 -8.03083 -4.95143 -0.697732 69.5375 85.4767 109.243 180 1.52581e-005 179.457 163.268 56.5096 -170.862 2.7922e-006 -1.83524e-007 0.834806 -25.6387 69.4293 21.0574 8.13649 25.2327 -3.48774 -98.0916 80.0788 -82.3352 4.54188e-006 -4.6773e-006 -0.377567 -27.3366 -60.951 -17.0807 4.34571e-006 -5.44512e-006 0.851337 40.136 76.4123 -34.1467 -8.13649 25.2326 3.48774 
52.0953 72.8293 9.36066 7.6919 39.8549 -11.4954 -0.421078 0.723028 0.447392 -0.855433 5.44525 0.950985 -0.868574 7.09013 0.966759 -21.9477 -11.3389 -0.716903 16.5141 19.7324 -4.20664 38.1412 -4.91719 -1.47116 136.373 34.2256 -66.4412 -9.17776e-006 -3.32771e-006 -6.09793e-006 23.8128 47.2376 -4.81489 -9.47833e-006 3.09696e-006 -3.00001 8.03013 -4.95162 0.697669 -62.9812 -9.25475 5.7908 -128.479 54.6523 39.6501 -1.93372e-006 2.06424e-007 2.61463e-006 -40.488 2.33304 -1.9158 -9.25065e-007 2.84242e-006 3.04004 -8.03083 -4.95143 -0.697732 72.8511 85.5358 105.925 180 1.52581e-005 179.458 163.312 56.3013 -170.928 2.7922e-006 -1.83524e-007 0.831373 -25.6174 69.399 21.024 8.13649 25.2327 -3.48774 -99.6116 80.0733 -80.7724 4.54188e-006 -4.6773e-006 -0.375588 -27.2244 -60.729 -16.9648 4.34571e-006 -5.44512e-006 0.857966 40.0199 76.3733 -34.0258 -8.13649 25.2326 3.48774 
52.0929 72.9255 9.41904 7.66456 39.7705 -11.4599 -0.415824 0.719746 0.446194 -0.84483 5.43874 0.948219 -0.857915 7.08363 0.963809 -21.9237 -11.3958 -0.72095 16.4851 19.7167 -4.19162 38.2361 -4.89818 -1.46206 136.482 34.3629 -66.2559 -9.17776e-006 -3.32771e-006 -6.09793e-006 24.0584 46.7626 -4.83001 -9.47833e-006 3.09696e-006 -3.00001 8.03013 -4.95162 0.697669 -63.0883 -9.24498 5.7864 -128.595 54.7619 39.2143 -1.93372e-006 2.06424e-007 2.61463e-006 -40.3057 2.02897 -1.83672 -9.25065e-007 2.84242e-006 3.04761 -8.03083 -4.95143 -0.697732 76.2565 85.58 102.516 180 1.52581e-005 179.46 163.356 56.0924 -170.993 2.7922e-006 -1.83524e-007 0.828027 -25.5959 69.3685 20.9904 8.13649 25.2327 -3.48774 -101.134 80.0603 -79.207 4.54188e-006 -4.6773e-006 -0.373597 -27.1129 -60.5063 -16.8494 4.34571e-006 -5.44512e-006 0.864387 39.903 76.3338 -33.9043 -8.13649 25.2326 3.48774 
